<?xml version="1.0" encoding="utf-8"?>
<!-- Generator: Adobe Illustrator 27.9.0, SVG Export Plug-In . SVG Version: 6.00 Build 0)  -->
<svg version="1.1" id="Layer_1" xmlns="http://www.w3.org/2000/svg" xmlns:xlink="http://www.w3.org/1999/xlink" x="0px" y="0px"
	 viewBox="0 0 1000 1000" style="enable-background:new 0 0 1000 1000;" xml:space="preserve">
<style type="text/css">
	.st0{fill:#FFFFFF;}
	.st1{fill:none;stroke:#FFFFFF;stroke-width:50;stroke-miterlimit:10;}
</style>
<g>
	<g>
		<path class="st0" d="M822.5,298.78V944H177.28V298.78H822.5 M852.5,248.78H147.28c-11.05,0-20,8.95-20,20V954
			c0,22.09,17.91,40,40,40H832.5c22.09,0,40-17.91,40-40V268.78C872.5,257.74,863.55,248.78,852.5,248.78L852.5,248.78z"/>
	</g>
	<g>
		<path class="st1" d="M342.48,283.09C341.29,148.7,410.03,37.78,493.06,33.15c87.12-4.86,163.1,108.78,161.98,249.94"/>
		<line class="st1" x1="342.5" y1="282.76" x2="342.5" y2="513.8"/>
		<line class="st1" x1="655.05" y1="282.76" x2="655.05" y2="513.8"/>
	</g>
</g>
</svg>
