<?xml version="1.0" encoding="utf-8"?>
<!-- Generator: Adobe Illustrator 27.9.0, SVG Export Plug-In . SVG Version: 6.00 Build 0)  -->
<svg version="1.1" id="Layer_1" xmlns="http://www.w3.org/2000/svg" xmlns:xlink="http://www.w3.org/1999/xlink" x="0px" y="0px"
	 viewBox="0 0 1000 1000" style="enable-background:new 0 0 1000 1000;" xml:space="preserve">
<style type="text/css">
	.st0{fill:#FFFFFF;}
	.st1{fill:none;stroke:#FFFFFF;stroke-width:50;stroke-miterlimit:10;}
	.st2{fill:#87CEEB;}
</style>
<g>
	<g>
		<path class="st0" d="M822.5,298.8V944H177.3V298.8H822.5 M852.5,248.8H147.3c-11.1,0-20,9-20,20V954c0,22.1,17.9,40,40,40h665.2
			c22.1,0,40-17.9,40-40V268.8C872.5,257.7,863.5,248.8,852.5,248.8L852.5,248.8z"/>
	</g>
	<g>
		<path class="st1" d="M342.5,283.1C341.3,148.7,410,37.8,493.1,33.2c87.1-4.9,163.1,108.8,162,249.9"/>
		<line class="st1" x1="342.5" y1="282.8" x2="342.5" y2="513.8"/>
		<line class="st1" x1="655" y1="282.8" x2="655" y2="513.8"/>
	</g>
</g>
<circle class="st2" cx="872.5" cy="248.8" r="127.1"/>
<g>
	<path class="st0" d="M866.7,194.2h-0.4l-22.6,12.2l-3.4-13.4l28.4-15.2h15v130h-17V194.2z"/>
</g>
</svg>
