<?xml version="1.0" encoding="utf-8"?>
<!-- Generator: Adobe Illustrator 27.9.0, SVG Export Plug-In . SVG Version: 6.00 Build 0)  -->
<svg version="1.1" id="Layer_1" xmlns="http://www.w3.org/2000/svg" xmlns:xlink="http://www.w3.org/1999/xlink" x="0px" y="0px"
	 viewBox="0 0 1000 1000" style="enable-background:new 0 0 1000 1000;" xml:space="preserve">
<style type="text/css">
	.st0{fill:#FFFFFF;}
</style>
<g>
	<g>
		<path class="st0" d="M193.8,250.56c-38.78,1.25-75.45,7.29-112.05,20.33c-0.59,10.84-0.69,16.27-0.52,27.1
			c39.26-14.31,78.66-20.17,120.37-20.51c-1.05,39.65,2.03,78.2,10.71,116.93c-66.09,0.6-123.73,19.42-172.07,65.56
			c-55.44-130.17-25.4-280.37,69.95-383.69c51.24-36.33,108.32-53.47,170.94-54.41c-20.74,31.58-36.81,64.8-49.92,100.2
			c-41.29,0.33-80.47,6.25-119.6,19.58c-4,9.91-5.85,14.95-9.2,25.17c36.54-12.39,73.11-18.37,111.64-19.56
			C204.17,181.23,197.46,215.39,193.8,250.56z"/>
		<path class="st0" d="M352.49,317.03c22.16-83.66,55.52-167.12,104.64-238.83c10.52,7.67,20.66,18.76,31.71,25.38
			c14.09,8.45,17.42-1.14,28.73-11.49c-16.4,59.43-36.76,115.92-57.38,173.82c-19.98,56.1-35.71,113.6-44.51,172.54
			c-39.81-13.8-79.85-25.99-121.09-34.73c-37.31-121.07-46.49-262.02,2.49-381.31c24.52,1.92,47.8,6.1,71.47,12.78
			C342.73,126.52,342.35,223.29,352.49,317.03z"/>
		<path class="st0" d="M699.73,309.83c-39.51,4.64-79.03,8.98-118.66,12.35c-0.6,10.36-1.2,20.72-1.8,31.08
			c42.9-2.12,85.56-6.27,128.19-11.37c-3.53,48.88-8.28,97.61-14.05,146.28c-68.89,7.4-135.73,2.27-201.16-21.39
			c2.73-128.91,22.14-257.38,38-385.16c50.78-37.71,107.36-57.96,170.48-61.55c6.4,43.04,9.59,86.24,11.06,129.72
			c-41.26,4.03-81.72,11-121.95,20.97c-0.38,10.08-0.79,20.15-1.23,30.22c38.01-8.15,76.17-14.46,114.79-18.84
			C703.38,224.74,702.04,267.28,699.73,309.83z"/>
		<path class="st0" d="M796.12,467.38c-26.05,6.95-52.11,12.83-78.68,17.4c20.15-152.7,32.61-312.12,4.91-464.69
			c52.33,3.08,99.78,17.48,144.77,44.5c4.84,3.06,10.87,8.31,18.19,15.46c7.94,7.76,15.66,15.94,22.97,24.14
			c7.95,8.93,15.85,18.37,22.88,27.9c6.48,8.8,12.8,18.26,17.66,28.32c0.89,1.85,1.74,3.69,2.5,5.52c0.77,1.83,1.47,3.65,2.11,5.46
			c3.53,10.44,5.01,15.85,7.42,26.95c1.98,11.04,3.43,22.03,2.67,33.14c-0.7,10.18-3.54,22.03-7.48,31.45
			c-4.27,10.23-10.39,20.15-17.1,28.4c-7.33,9.02-15.78,15.96-25.64,23.15c28.86-3.31,57.72-6.1,86.71-7.96
			c-4.38,34.11-13.18,66.37-25.59,98.43c-40.76,15.96-81.6,31.6-123.08,45.6c-5.67,0.66-10.32-2.66-14.24-10.26
			c-4.85-9.41-7.68-19.78-10.24-29.83c-3.34-13.14-5.54-26.96-7.35-40.57c-1.8-13.63-3.28-27.34-4.05-41.09
			C811.24,375.33,804.73,421.46,796.12,467.38z M819.06,200.73c15.32,0.06,30.58,0.41,45.89,1.08c7.33,0.38,12.67-1.13,15.97-4.49
			s4.69-9.18,3.98-17.43c-0.31-1.44-0.46-2.16-0.78-3.59c-2.04-12.35-11.91-21.34-23.99-23.32c-14.81-1.98-29.58-3.51-44.48-4.65
			C817.24,165.78,818.35,183.21,819.06,200.73z"/>
	</g>
</g>
<g>
	<g>
		<path class="st0" d="M201.56,679.82c16.56,3.69,32.52,8.91,48.43,14.73c-8.82-11.19-17.98-22.12-27.48-32.73
			c-9.84-10.99-19.86-21.82-30.02-32.51c-10.24-10.77-20.54-21.5-30.81-32.25c-10.16-10.63-19.97-21.61-29.18-33.08
			c-0.81-1.07-1.22-1.6-2.03-2.66c-2.25-2.96-4.87-6.44-7.56-10.89c-5.76-9.55-11.05-19.69-14.53-30.36
			c-2.8-8.59-4.92-18.78-5.21-27.93c-0.27-8.45,0.7-15.88,2.87-21.87c2.16-5.98,5.43-9.95,9.67-11.58
			c32.53-11.39,64.91-15.79,99.28-15.8c9.37,42.87,21.96,84.14,36.34,125.55c-19.42-3.08-38.94-5.4-58.64-5
			c10.43,12.88,20.83,25.91,30.85,38.98c9.83,12.83,19.43,26.19,28.35,39.61c8.96,13.48,17.59,27.65,25.47,41.76
			c8,14.33,15.43,29.33,22.39,44.31c3.16,6.81,6.24,13.82,9.27,20.84c4.02,9.3,7.84,18.75,11.33,28.26
			c2.97,8.09,5.25,14.76,6.8,19.97c1.55,5.21,2.23,8.62,2,10.26s-1.45,1.29-3.73-0.95c-19.42-19.06-38.87-38.11-58.34-57.13
			C244.65,726.71,222.85,703.53,201.56,679.82z"/>
		<path class="st0" d="M387.9,867.96c-9.66-9.53-19.32-19.05-28.99-28.57c-48.61-128.41-98.84-261-126.36-395.75
			c42.77,3.55,84,12.61,125.18,24.48c5.58,1.65,11.47,7.07,17.45,16.19c7,10.7,12.58,22.49,17.13,34.36
			c5.56,14.52,10.47,29.54,14.47,44.48c4.03,15.06,7.39,30.68,9.78,46.13c0.43,2.76,0.76,5.56,1.07,8.3s0.58,5.47,0.81,8.17
			c1.33,17.5,2.35,35.02,3.6,52.53c1.01,14.41,1,28.9,0.16,43.3c-0.73,12.53-1.94,25.09-4.12,37.45
			c-1.88,10.64-4.17,18.7-6.91,24.15c-2.75,5.49-5.83,6.92-9.53,4.42c-14.07-9.42-28.22-18.71-42.58-27.71
			C368.32,796.02,377.93,832.04,387.9,867.96z M330.05,639.93c10.76,4.32,21.41,8.78,32.04,13.41c4.91,2.17,7.77,1.3,8.66-2.7
			s0.78-10.47-0.29-19.46c-0.42-2.62-0.63-3.93-1.07-6.56c-1.38-7.1-3.28-13.01-5.7-17.65c-2.41-4.64-6.11-7.92-11.03-9.75
			c-11.55-4.32-23.19-8.38-34.94-12.13C321.88,603.36,325.86,621.67,330.05,639.93z"/>
		<path class="st0" d="M501.08,975.93c-6.52,4.35-15-14.18-17.59-19.37c-6.76-13.53-11.36-28.7-15.68-43.39
			c-5.87-19.95-10.23-40.66-14.2-61.15c-5.18-26.81-8.84-54.1-11.78-81.26c-0.88-8.12-1.66-16.48-2.39-24.99
			c-0.73-8.51-1.35-17.39-1.85-26.65c-0.06-0.54-0.08-0.82-0.14-1.36c-1.63-32.67-2.08-65.51,0.6-97.97
			c1.83-22.15,3.89-45.62,12.52-65.67c5.51-12.8,12.94-27.33,25.52-33c13.16-5.94,22.22-4.75,37.09-0.72
			c12.91,3.5,25.78,10.68,36.69,19.27c11.91,9.38,20.79,21.17,27.9,33.9c8.46,15.15,12.79,32.67,15.74,50
			c3.74,21.96,2.01,44.77-1.54,66.58c-1.15,7.05-2.41,14.32-3.8,21.67c-1.39,7.35-2.97,15.2-4.73,23.58
			c-0.07,0.45-0.1,0.67-0.17,1.12c-6.42,30.08-13.42,60.07-21.64,89.66c-6.38,22.97-13.02,46.06-20.7,68.56
			c-5.76,16.86-11.72,34.2-19.61,49.9C515.86,955.5,509.38,970.39,501.08,975.93z M512.87,657.66c-6.5-0.75-11.25,0.62-15.04,4.38
			c-3.79,3.76-6.85,9.87-9.24,16.75c-2.39,6.88-4.23,15.69-5.22,26.5c-1.15,12.54-1.61,25.17-1.74,37.77
			c0.02,0.55,0.03,0.83,0.05,1.39c-0.38,9.55,0.05,19.17,0.4,28.68c0.61,16.84,2.14,34.17,6.35,50.58
			c3.33,12.98,8.63,19.17,15.96,16.28c4.28-1.69,8.29-5.08,11.67-10.14c3.38-5.07,6.3-11.6,8.83-19.53
			c2.89-9.04,5.07-18.69,6.57-28.06c1.93-12.07,3.54-24.13,4.96-36.28c0.03-0.5,0.04-0.75,0.06-1.25c0.47-4.19,0.88-8.37,1.22-12.53
			c0.34-4.16,0.6-8.35,0.85-12.46c0.85-14.33,0.68-30.07-3.93-43.88C531.36,666.05,523.19,658.85,512.87,657.66z"/>
		<path class="st0" d="M586.57,888.57c-9.66,9.51-19.33,19.02-29.01,28.52c23.91-125.75,63.25-249.19,74.13-376.96
			c44.03-0.5,86.91-6.41,129.85-15.95c4.74-1.1,9.04,0.49,12.59,4.64c3.56,4.16,6.27,9.94,7.9,17.22
			c1.62,7.29,1.93,15.74,0.93,25.11c-1.03,9.63-3.9,20.18-7.57,29.1c-0.81,1.96-1.66,3.98-2.57,5.97c-0.91,1.99-1.88,3.99-2.91,5.99
			c-5.23,9.66-10.63,18.97-16.43,28.3c-7.04,10.99-14.14,21.96-21.42,32.74c-7.18,10.64-14.69,21.22-22.34,31.53
			c-7.17,9.66-14.54,19.37-22.04,28.69c-6.59,8.19-13.46,16.4-20.8,24.07c14.71-8.96,29.3-18.1,43.79-27.41
			c-19.27,30.41-38.15,61.04-56.66,91.92c-15.62,15.43-31.24,30.85-46.88,46.26c-1.85,1.19-2.53-0.65-2.22-5.64
			c0.31-4.99,1.17-11.68,2.53-20.07c1.52-9.36,3.31-18.75,5.24-28c2.01-9.63,4.16-19.35,6.64-28.9
			C607.92,819.83,597.01,854.12,586.57,888.57z M652.85,690.53c9.35-2.88,18.67-5.99,27.88-9.29c4.51-1.6,8.55-4.34,12.2-8.11
			c3.65-3.77,7.33-9.07,10.95-16.08c0.5-1.16,0.74-1.74,1.23-2.91c4.6-11.02,2.02-15.39-6.85-12.83c-9.99,2.92-20.09,5.6-30.22,7.99
			C663.28,663.18,657.96,676.8,652.85,690.53z"/>
		<path class="st0" d="M820.59,508.28c55.72-17.31,110.02-38.34,164.3-59.67c-15.56,36.95-35.84,69.77-61.81,100.31
			c-15.2,7.27-30.42,14.49-45.68,21.62c-56.22,68.97-117.53,133.92-174.07,202.74c-9.67,9.56-19.33,19.13-29,28.69
			c48.85-70.71,102.59-137.83,151.79-208.19c-15.48,6.79-31.09,13.29-46.8,19.52C797.56,579.86,810.73,545.05,820.59,508.28z"/>
	</g>
</g>
</svg>
