<?xml version="1.0" encoding="utf-8"?>
<!-- Generator: Adobe Illustrator 27.9.0, SVG Export Plug-In . SVG Version: 6.00 Build 0)  -->
<svg version="1.1" id="Layer_1" xmlns="http://www.w3.org/2000/svg" xmlns:xlink="http://www.w3.org/1999/xlink" x="0px" y="0px"
	 viewBox="0 0 1000 600" style="enable-background:new 0 0 1000 600;" xml:space="preserve">
<style type="text/css">
	.st0{fill:#FFFFFF;}
	.st1{fill:none;stroke:#FFFFFF;stroke-width:24;stroke-miterlimit:10;}
</style>
<g>
	<g>
		<path class="st0" d="M339.42,324.47H84.87c-10.82,0-19.58-8.76-19.58-19.58v-9.79c0-10.82,8.76-19.58,19.58-19.58h254.55
			c10.82,0,19.58,8.76,19.58,19.58v9.79C359,315.71,350.24,324.47,339.42,324.47z"/>
	</g>
	<g>
		<path class="st0" d="M339.42,238.32H84.87c-10.82,0-19.58-8.76-19.58-19.58v-9.79c0-10.82,8.76-19.58,19.58-19.58h254.55
			c10.82,0,19.58,8.76,19.58,19.58v9.79C359,229.56,350.24,238.32,339.42,238.32z"/>
	</g>
	<g>
		<path class="st0" d="M339.42,410.63H84.87c-10.82,0-19.58-8.76-19.58-19.58v-9.79c0-10.82,8.76-19.58,19.58-19.58h254.55
			c10.82,0,19.58,8.76,19.58,19.58v9.79C359,401.87,350.24,410.63,339.42,410.63z"/>
	</g>
</g>
<rect x="10.99" y="127.37" transform="matrix(1 -4.749203e-03 4.749203e-03 1 -1.4191 2.3803)" class="st1" width="979.01" height="345.26"/>
<g>
	<path class="st0" d="M454.18,375.88V231.35h80.76v15.33h-60.25v48.44h50.59v15.14h-50.59v65.62H454.18z"/>
	<path class="st0" d="M562,250.59v-19.24h19.24v19.24H562z M562,375.88V269.82h19.24v106.05H562z"/>
	<path class="st0" d="M619.81,375.88v-154.2h19.24v154.2H619.81z"/>
	<path class="st0" d="M724.89,375.88c-5.92,1.63-11.07,2.44-15.43,2.44c-9.77,0-17.38-2.8-22.85-8.4c-5.47-5.6-8.2-13.38-8.2-23.34
		v-62.3h-13.28v-14.45h13.28v-19.24l19.24-1.86v21.09h27.73v14.45h-27.73v58.79c0,13.87,5.99,20.8,17.97,20.8
		c2.54,0,5.63-0.42,9.28-1.27V375.88z"/>
	<path class="st0" d="M830.16,372.46c-12.89,3.91-23.93,5.86-33.11,5.86c-15.69,0-28.45-5.19-38.28-15.56
		c-9.83-10.37-14.75-23.82-14.75-40.35c0-16.07,4.35-29.24,13.04-39.52c8.69-10.28,19.81-15.42,33.35-15.42
		c12.83,0,22.74,4.57,29.74,13.72c7,9.15,10.5,22.12,10.5,38.92l-0.1,5.86h-66.89c2.8,25.13,15.14,37.7,37.01,37.7
		c8.01,0,17.84-2.18,29.49-6.54V372.46z M764.54,311.52h46.78c0-19.73-7.36-29.59-22.07-29.59
		C774.46,281.93,766.23,291.8,764.54,311.52z"/>
	<path class="st0" d="M863.85,375.88V269.82h19.24v19.92c7.62-14.84,18.68-22.27,33.2-22.27c1.95,0,4,0.17,6.15,0.49v18.06
		c-3.32-1.11-6.25-1.66-8.79-1.66c-12.17,0-22.36,7.22-30.57,21.66v69.85H863.85z"/>
</g>
</svg>
