<?xml version="1.0" encoding="utf-8"?>
<!-- Generator: Adobe Illustrator 27.9.0, SVG Export Plug-In . SVG Version: 6.00 Build 0)  -->
<svg version="1.1" id="Layer_1" xmlns="http://www.w3.org/2000/svg" xmlns:xlink="http://www.w3.org/1999/xlink" x="0px" y="0px"
	 viewBox="0 0 1000 1000" style="enable-background:new 0 0 1000 1000;" xml:space="preserve">
<style type="text/css">
	.st0{fill:#FFFFFF;}
</style>
<g>
	<path class="st0" d="M933.33,583.33H66.67C29.83,583.33,0,553.5,0,516.67v-33.33c0-36.83,29.83-66.67,66.67-66.67h866.67
		c36.83,0,66.67,29.83,66.67,66.67v33.33C1000,553.5,970.17,583.33,933.33,583.33z"/>
</g>
<g>
	<path class="st0" d="M933.33,290H66.67C29.83,290,0,260.17,0,223.33V190c0-36.83,29.83-66.67,66.67-66.67h866.67
		c36.83,0,66.67,29.83,66.67,66.67v33.33C1000,260.17,970.17,290,933.33,290z"/>
</g>
<g>
	<path class="st0" d="M933.33,876.67H66.67C29.83,876.67,0,846.83,0,810v-33.33C0,739.83,29.83,710,66.67,710h866.67
		c36.83,0,66.67,29.83,66.67,66.67V810C1000,846.83,970.17,876.67,933.33,876.67z"/>
</g>
</svg>
