<?xml version="1.0" encoding="UTF-8"?>
<svg id="Layer_1" data-name="Layer 1" xmlns="http://www.w3.org/2000/svg" viewBox="0 0 975.41 576.34">
  <defs>
    <style>
      .cls-1 {
        fill: #0598ba;
      }

      .cls-1, .cls-2, .cls-3, .cls-4, .cls-5, .cls-6, .cls-7, .cls-8, .cls-9, .cls-10, .cls-11, .cls-12 {
        stroke-width: 0px;
      }

      .cls-1, .cls-7 {
        fill-rule: evenodd;
      }

      .cls-13 {
        font-family: LucidaSansUnicode, 'Lucida Sans Unicode';
        font-size: 100px;
      }

      .cls-13, .cls-8 {
        fill: #fff;
      }

      .cls-2 {
        fill: #ffb3c7;
      }

      .cls-4 {
        fill: #eb001b;
      }

      .cls-14 {
        stroke: #fff;
        stroke-miterlimit: 10;
        stroke-width: 5px;
      }

      .cls-14, .cls-6 {
        fill: none;
      }

      .cls-5 {
        fill: #f79e1b;
      }

      .cls-7 {
        fill: #0498ba;
      }

      .cls-9 {
        fill: #ff5f00;
      }

      .cls-10 {
        fill: #faa61a;
      }

      .cls-11 {
        fill: #ff3e3e;
      }

      .cls-12 {
        fill: #00579f;
      }
    </style>
  </defs>
  <g id="Lager_2" data-name="Lager 2">
    <g id="Layer_1-2" data-name="Layer 1">
      <rect class="cls-2" x=".03" y="1.27" width="250" height="100" rx="29.35" ry="29.35"/>
      <path class="cls-3" d="m200.03,44.99c-7.58-4.82-17.22-2.99-22.03,4.08-4.82,7.07-2.99,16.7,4.08,21.52,5.26,3.58,12.18,3.58,17.95,0v3.19h10v-30h-10v1.22Zm-8.51,20.35c-4.17-.22-7.37-3.78-7.15-7.95.22-4.17,3.78-7.37,7.95-7.15,4.01.21,7.16,3.53,7.16,7.55-.12,4.28-3.68,7.66-7.96,7.55Z"/>
      <rect class="cls-3" x="70.03" y="28.77" width="10" height="42.5"/>
      <path class="cls-3" d="m160.92,43.64c-3.25-.21-6.39,1.32-8.4,4.1v-3.96h-10v30h7.5v-15.42c-.26-3.41,2.26-6.38,5.62-6.64.3-.02.59-.02.89,0,3.81,0,6,2.31,6,6.59v15.48h10v-18.66c0-6.83-5.04-11.47-11.6-11.47Z"/>
      <path class="cls-3" d="m105.03,44.99c-5.28-4.82-14.91-2.99-19.72,4.08-4.82,7.07-2.99,16.7,4.08,21.52,5.26,3.58,12.18,3.58,15.65,0v3.19h10v-30h-10v1.22Zm-6.2,20.35c-4.17-.22-7.37-3.78-7.15-7.95.22-4.17,3.78-7.37,7.95-7.15,4.01.21,7.16,3.53,7.16,7.55-.12,4.28-3.68,7.66-7.96,7.55h0Z"/>
      <path class="cls-3" d="m130.03,46.93v-3.16h-10v30h10v-15.01c-.81-4.62,4.2-7.11,7.68-7.11.03,0-.18,0-.18,0v-8.54l-7.5,3.82Z"/>
      <path class="cls-3" d="m217.63,62.05c-3.05,0-5.51,2.47-5.51,5.52,0,3.05,2.47,5.51,5.52,5.51,3.05,0,5.51-2.47,5.51-5.51,0-3.05-2.47-5.51-5.51-5.51h0Z"/>
      <path class="cls-3" d="m63.5,28.77h-9.54c.03,7.76-3.63,15.07-9.87,19.69l-3.78,2.83,14.65,19.97h12.04l-13.48-18.38c6.42-6.38,10.01-15.07,9.97-24.12Z"/>
      <rect class="cls-3" x="30.03" y="28.77" width="10" height="42.5"/>
    </g>
  </g>
  <g>
    <rect class="cls-6" x="414.66" y="1.27" width="140.74" height="100"/>
    <g>
      <rect class="cls-9" x="469.29" y="24.42" width="29.63" height="52.78"/>
      <path class="cls-4" d="m471.83,50.95c0-10.19,4.72-19.91,12.69-26.2-14.44-11.39-35.46-8.89-46.85,5.65-11.3,14.44-8.8,35.37,5.74,46.76,12.13,9.54,29.07,9.54,41.2,0-8.06-6.3-12.78-16.02-12.78-26.2Z"/>
      <path class="cls-5" d="m538.49,50.95c0,18.43-14.91,33.33-33.33,33.33-7.5,0-14.72-2.5-20.56-7.13,14.44-11.39,16.94-32.31,5.56-46.85-1.67-2.04-3.52-3.98-5.56-5.56,14.44-11.39,35.46-8.89,46.76,5.65,4.63,5.83,7.13,13.06,7.13,20.56Z"/>
    </g>
  </g>
  <g id="g4158">
    <polygon id="polygon9" class="cls-12" points="797.97 98.59 772.97 98.59 788.61 1.88 813.61 1.88 797.97 98.59"/>
    <path id="path11" class="cls-12" d="m888.72,4.12c-4.94-1.96-12.77-4.12-22.45-4.12-24.72,0-42.12,13.18-42.23,32.03-.21,13.9,12.46,21.63,21.94,26.26,9.68,4.74,12.98,7.83,12.98,12.05-.1,6.49-7.83,9.47-15.03,9.47-9.99,0-15.35-1.54-23.48-5.15l-3.3-1.55-3.5,21.73c5.87,2.67,16.69,5.05,27.92,5.15,26.26,0,43.36-12.98,43.56-33.06.1-11.02-6.59-19.46-21.01-26.36-8.75-4.43-14.12-7.42-14.12-11.95.1-4.12,4.53-8.34,14.42-8.34,8.14-.21,14.12,1.75,18.64,3.71l2.26,1.03,3.4-20.9h0Z"/>
    <path id="path13" class="cls-12" d="m921.98,64.3c2.06-5.56,9.99-27.08,9.99-27.08-.1.21,2.06-5.66,3.29-9.27l1.75,8.34s4.74,23.17,5.77,28.01h-20.8Zm30.87-62.41h-19.34c-5.96,0-10.5,1.75-13.07,8.02l-37.14,88.68h26.22s4.32-11.95,5.25-14.52h32.14c.72,3.4,2.99,14.52,2.99,14.52h23.13L952.86,1.88h0Z"/>
    <path id="path15" class="cls-12" d="m752.04,1.88l-24.51,66.02-2.68-13.39c-4.53-15.45-18.75-32.23-34.61-40.58l22.45,84.66h26.47L778.51,1.88h-26.47Z"/>
    <path id="path17" class="cls-10" d="m704.77,1.88h-40.27l-.41,1.96c31.41,8.03,52.22,27.4,60.77,50.67l-8.75-44.49c-1.44-6.18-5.87-7.93-11.33-8.14h0Z"/>
  </g>
  <g>
    <path class="cls-7" d="m.05,157.81c7.21-.02,14.42-.02,21.63-.1,1.23-.01,1.49.49,1.44,1.57-.07,1.24-.02,2.5-.02,3.82.27-.05.53-.02.66-.13,15.24-13.51,38.47-8.12,45.74,10.98,5.17,13.61,4.2,26.81-5.64,38.3-10.37,12.12-30.1,12.7-39.94,4.87-.15-.12-.38-.16-.89-.36v21.47c-6.98,0-13.96-.05-20.94.04-1.57.02-2.09-.21-2.08-1.97.07-26.16.05-52.33.05-78.49Zm22.09,31c-.1,7.52,5.11,12.94,12.55,13.08,7.1.13,12.59-5.14,12.71-12.18.13-8.14-4.75-13.6-12.27-13.71-7.61-.12-12.88,5.09-12.98,12.81Z"/>
    <path class="cls-7" d="m529.95,220.56c-6.46-.43-12.93-.07-19.4-.18-.66-.01-1.33-.07-1.98.01-1.43.18-1.79-.49-1.69-1.79.09-1.23.02-2.47.02-4.01-1.31,1.09-2.37,2.06-3.52,2.91-10.8,7.87-27.94,6.02-37.12-3.98-11.47-12.51-11.41-35.26-.14-47.89,10.22-11.45,29.77-12.88,40-4.73.15.12.38.13.77.26,0-5.54.08-10.96-.05-16.38-.04-1.65.59-2.12,2.03-2.38,6.14-1.14,12.26-2.37,18.39-3.57.35-.07.74-.04.92-.46,1.51-.33,1.81.25,1.81,1.77-.06,26.81-.04,53.62-.04,80.43Zm-47.72-31.67c0,7.69,5.09,13.05,12.46,13.09,7.53.04,12.76-5.28,12.79-13.01.03-7.52-5.22-12.78-12.74-12.78-7.44,0-12.51,5.15-12.52,12.7Z"/>
    <path class="cls-7" d="m369.26,155.57c7.03.11,12.94,1.09,18.57,3.5,13.26,5.68,20.23,17.77,19.07,32.18-1.38,17.23-13.1,27.22-28.55,30.14-9.18,1.73-18.2,1.02-26.83-2.66-13.65-5.81-19.66-17.4-18.94-31.36,1.02-19.9,15.53-29.25,31.03-31.32,2.18-.29,4.39-.38,5.65-.49Zm-12.27,33.42c0,7.5,5.44,13,12.74,12.89,7.41-.11,12.55-5.35,12.55-12.81,0-7.77-5.18-13.11-12.72-13.08-7.42.03-12.58,5.36-12.58,13Z"/>
    <path class="cls-7" d="m113.39,155.58c9.64.24,18.65,2.42,26.24,8.76,6.32,5.28,9.56,12.19,10.27,20.31.81,9.27-.9,17.9-7.12,25.18-5.33,6.24-12.28,9.67-20.21,11.33-9.39,1.97-18.59,1.38-27.5-2.27-14.78-6.05-20.63-18.99-19.2-33.5,1.6-16.24,13.02-25.94,28.07-28.87,3.11-.61,6.25-.94,9.43-.93Zm-.38,20.42c-7.53-.06-12.8,5.2-12.95,12.94-.14,7.27,5.44,12.93,12.76,12.93,7.29,0,12.61-5.34,12.7-12.73.08-7.54-5.2-13.09-12.52-13.14Z"/>
    <path class="cls-1" d="m286.14,162.8c7.6-7.41,16.53-8.61,26.11-6.04,8.69,2.33,12.77,8.86,14.38,17.26.43,2.25.57,4.52.56,6.81-.02,12.44-.04,24.89.03,37.33,0,1.66-.32,2.29-2.15,2.26-6.33-.12-12.66-.1-19,0-1.71.03-2.25-.42-2.24-2.2.05-10.38-.03-20.76-.09-31.14,0-1.02-.12-2.06-.31-3.06-1.07-5.6-3.31-7.46-8.66-7.26-5.14.19-8.28,2.98-8.74,8.11-.51,5.8-.14,11.63-.2,17.44-.05,5.37-.06,10.75.02,16.12.03,1.57-.48,2-2.01,1.98-6.48-.07-12.96-.07-19.44,0-1.42.01-1.86-.36-1.86-1.84.05-19.66.06-39.32,0-58.98,0-1.64.57-1.9,2.02-1.88,6.33.07,12.67.1,19-.01,1.85-.03,2.51.5,2.29,2.33-.1.83-.22,1.74.28,2.78Z"/>
    <path class="cls-1" d="m185.9,155.64c7.69.26,14.71.86,21.63,2.48,1.45.34,1.73.79,1.37,2.22-1.18,4.63-2.28,9.28-3.23,13.96-.36,1.75-1,1.8-2.51,1.35-7.16-2.14-14.44-3.52-21.96-2.42-.58.08-1.14.25-1.71.42-1.38.41-2.46,1.22-2.45,2.74.02,1.58,1.24,2.27,2.61,2.58,4.95,1.12,10.05,1.41,14.97,2.68,2.64.68,5.23,1.49,7.7,2.66,6.83,3.25,9.86,8.56,9.64,16.1-.27,8.94-4.84,14.68-12.78,18.1-6.4,2.76-13.21,3.45-20.06,3.6-8.58.19-17.01-.95-25.29-3.29-1.35-.38-1.71-.8-1.31-2.25,1.36-4.88,2.59-9.8,3.75-14.74.37-1.59.94-1.71,2.38-1.16,7.62,2.93,15.48,4.65,23.72,4.04,1.11-.08,2.2-.28,3.21-.73,1.14-.51,1.94-1.29,1.93-2.68-.01-1.4-.83-2.14-2.01-2.6-2.57-.98-5.29-1.2-7.98-1.56-4.68-.62-9.3-1.46-13.7-3.22-12.7-5.11-15.35-21.46-4.93-30.48,5.72-4.95,12.71-6.56,19.96-7.36,2.56-.28,5.14-.33,7.08-.45Z"/>
    <path class="cls-1" d="m216.2,181.91c0-12.08.04-24.16-.04-36.24-.01-1.68.44-2.07,2.07-2.05,6.41.1,12.82.11,19.22,0,1.76-.03,2.07.58,2.02,2.14-.11,3.38.04,6.78-.07,10.16-.05,1.52.51,1.85,1.91,1.84,5.82-.06,11.64,0,17.45-.05,1.53-.02,2.02.22,1.16,1.77-3.02,5.47-5.98,10.97-8.91,16.5-.53.99-1.17,1.33-2.26,1.29-2.43-.07-4.87.09-7.29-.06-1.67-.1-2.08.42-2.08,2.08.07,12.74.04,25.48.04,38.22q0,2.85-2.83,2.86c-6.04,0-12.08-.07-18.12.05-1.81.04-2.35-.41-2.33-2.27.09-12.08.05-24.16.05-36.23Z"/>
    <path class="cls-7" d="m435.45,164.44c5.29-7.12,12.32-8.07,19.89-7.48,1.38.11,2.04.63,1.98,2.2-.23,5.95-.35,11.91-.46,17.86-.02,1.41-.47,1.77-1.87,1.41-2.65-.68-5.36-.9-8.1-.66-7.64.65-11.4,4.68-11.43,12.35-.04,9.27-.06,18.55.03,27.82.02,1.85-.31,2.54-2.37,2.49-6.25-.15-12.51-.09-18.77-.03-1.42.01-2.07-.2-2.07-1.88.06-19.65.05-39.3,0-58.96,0-1.42.36-1.88,1.83-1.86,6.55.08,13.1.07,19.65,0,1.41-.02,1.79.45,1.7,1.77-.1,1.46-.02,2.93-.02,4.97Z"/>
  </g>
  <g id="Page-1">
    <g id="instabox-logotype-landscape-screen">
      <path id="BG" class="cls-11" d="m660.91,132.27h299.24c5.31,0,7.23.55,9.17,1.59s3.48,2.59,4.5,4.5,1.59,3.86,1.59,9.17v69.48c0,5.31-.55,7.23-1.59,9.17s-2.59,3.48-4.5,4.5-3.86,1.59-9.17,1.59h-299.24c-5.31,0-7.23-.55-9.17-1.59s-3.48-2.59-4.5-4.5-1.59-3.86-1.59-9.17v-69.48c0-5.31.55-7.23,1.59-9.17s2.59-3.48,4.5-4.5,3.86-1.59,9.17-1.59Z"/>
      <g id="logo">
        <polyline id="Fill-16" class="cls-8" points="942.32 187.19 955.95 207.27 941.28 207.27 934.64 197.06 927.99 207.27 914.01 207.27 927.56 187.28 914.61 167.99 929.2 167.99 935.24 177.41 941.37 167.99 955.35 167.99 942.32 187.19"/>
        <path id="Fill-14" class="cls-8" d="m895.7,178.23c-4.08,0-6.38,3.77-6.38,9.08s2.3,9,6.38,9,6.46-3.68,6.46-9-2.3-9.08-6.46-9.08Zm0,29.22c-11.56,0-19.55-8.23-19.55-20.14s7.99-20.14,19.55-20.14,19.55,8.23,19.55,20.14-7.91,20.14-19.55,20.14Z"/>
        <path id="Fill-13" class="cls-8" d="m846.84,192.3c1.03,2.15,3.25,3.61,5.91,3.61,4.62,0,7.36-3.7,7.36-8.69s-2.74-8.78-7.36-8.78c-2.57,0-4.88,1.55-5.91,3.61v10.24Zm0,13.78h-13.1v-55.95h13.1v20.31c1.75-2.07,5.42-3.96,9.26-3.96,10.84,0,16.77,9.04,16.77,20.23s-5.92,20.23-16.77,20.23c-3.84,0-7.51-1.89-9.26-3.96v3.1Z"/>
        <path id="Fill-11" class="cls-8" d="m814.7,193.68c-.85-1.64-2.99-2.67-5.37-2.67-2.64,0-5.29,1.12-5.29,3.7s2.64,3.79,5.29,3.79c2.39,0,4.52-1.03,5.37-2.58v-2.24Zm0-9.73c0-3.01-2.78-5.16-8.35-5.16-3.74,0-7.57.95-10.7,2.75v-10.84c3.21-1.72,8.43-3.01,13.99-3.01,11.55,0,18.16,5.42,18.16,15.66v23.92h-13.1v-1.98c-1.3,1.29-5.04,2.67-9.22,2.67-7.74,0-14.35-4.3-14.35-12.48,0-7.49,6.61-12.31,15.05-12.31,3.31,0,6.96,1.03,8.52,2.15v-1.38Z"/>
        <polyline id="Fill-10" class="cls-8" points="783.74 207.27 770.65 207.27 770.65 178.7 763.51 178.7 763.51 167.99 770.65 167.99 770.65 157.27 783.74 157.27 783.74 167.99 790.89 167.99 790.89 178.7 783.74 178.7 783.74 207.27"/>
        <path id="Fill-8" class="cls-8" d="m731.36,192.42c3.62,2.98,9.52,4.85,13.4,4.85,2.61,0,4.3-.6,4.3-2.3,0-1.53-1.18-2.13-3.46-2.64l-2.95-.77c-7-1.53-11.46-4.85-11.46-11.74,0-8,6.57-12.51,15.51-12.51,5.39,0,9.52,1.11,13.23,3.4v10.98c-3.62-2.64-7.67-4.43-11.97-4.43-2.28,0-3.79.77-3.79,2.3,0,1.45,1.1,1.96,2.95,2.47l3.46,1.02c8.26,2.21,11.55,5.62,11.55,12.08,0,8.17-7,12.17-16.35,12.17-5.31,0-10.87-1.28-14.41-3.66v-10.67"/>
        <path id="Fill-6" class="cls-8" d="m689.7,167.99h13.1v3.4c2.13-2.44,5.87-4.28,10.29-4.28,8.5,0,13.52,5.67,13.52,14.41v25.75h-13.1v-22.12c0-3.18-1.64-5.51-5.1-5.51-2.68,0-4.93,1.55-5.62,4.22v23.41h-13.1v-39.29"/>
        <path id="Fill-5" class="cls-8" d="m669.46,206.08h13.1v-38.1h-13.1v38.1Zm7-41.25c-4.11,0-7.61-2.84-7.61-7.22s3.51-7.3,7.61-7.3,7.61,2.84,7.61,7.3-3.51,7.22-7.61,7.22Z"/>
      </g>
    </g>
  </g>
  <g>
    <rect class="cls-14" x="189.34" y="319.77" width="100" height="70"/>
    <rect class="cls-14" x="179.34" y="299.77" width="120" height="20"/>
    <path class="cls-14" d="m277.35,299.77h-36.71c2.28-5.35,7.72-11.65,13.74-18.45,17.68-19.98,25.75-10.4,30.4-3.88,3.78,5.3.47,14.44-7.43,22.33Z"/>
    <path class="cls-14" d="m238.35,299.77h-36.58c-8.07-7.93-11.48-17.2-7.66-22.55,4.65-6.52,12.72-16.1,30.41,3.88,6.1,6.9,11.61,13.27,13.83,18.67Z"/>
    <line class="cls-14" x1="240.64" y1="389.77" x2="240.64" y2="299.27"/>
    <line class="cls-14" x1="190.39" y1="344.52" x2="289.34" y2="344.52"/>
    <text class="cls-13" transform="translate(322.46 377.96)"><tspan x="0" y="0">Gift cards</tspan></text>
  </g>
  <text class="cls-13" transform="translate(142.79 532.34)"><tspan x="0" y="0">Click &amp; collect</tspan></text>
</svg>