<?xml version="1.0" encoding="UTF-8"?>
<svg id="Layer_1" data-name="Layer 1" xmlns="http://www.w3.org/2000/svg" viewBox="0 0 1280 159.71">
  <defs>
    <style>
      .cls-1 {
        fill: #ffb3c7;
      }

      .cls-1, .cls-2, .cls-3, .cls-4, .cls-5, .cls-6, .cls-7, .cls-8 {
        stroke-width: 0px;
      }

      .cls-3 {
        fill: #eb001b;
      }

      .cls-4 {
        fill: #f79e1b;
      }

      .cls-5 {
        fill: none;
      }

      .cls-6 {
        fill: #ff5f00;
      }

      .cls-7 {
        fill: #faa61a;
      }

      .cls-8 {
        fill: #00579f;
      }
    </style>
  </defs>
  <g id="Lager_2" data-name="Lager 2">
    <g id="Layer_1-2" data-name="Layer 1">
      <rect class="cls-1" width="370.83" height="150" rx="43.53" ry="43.53"/>
      <path class="cls-2" d="m296.95,65.72c-10.48-7.14-24.77-4.44-31.92,6.05-7.14,10.48-4.44,24.77,6.05,31.92,7.8,5.32,18.07,5.32,25.87,0v2.78h13.03v-43.53h-13.03v2.78Zm-11.85,30.18c-6.19-.33-10.93-5.61-10.6-11.79.33-6.19,5.61-10.93,11.79-10.6,5.95.32,10.62,5.24,10.62,11.2-.17,6.35-5.46,11.36-11.81,11.2Z"/>
      <rect class="cls-2" x="104.59" y="43.54" width="13.64" height="62.93"/>
      <path class="cls-2" d="m237.91,61.77c-5.2-.31-10.22,1.96-13.42,6.08v-4.9h-12.98v43.53h13.14v-22.88c-.39-5.05,3.39-9.47,8.45-9.86.44-.03.89-.04,1.33,0,5.73,0,9.02,3.42,9.02,9.77v22.97h13.02v-27.68c0-10.13-8.05-17.02-18.56-17.02Z"/>
      <path class="cls-2" d="m159.46,65.72c-10.48-7.14-24.77-4.44-31.92,6.05-7.14,10.48-4.44,24.77,6.05,31.92,7.8,5.32,18.07,5.32,25.87,0v2.78h13.03v-43.53h-13.03v2.78Zm-11.85,30.18c-6.19-.33-10.93-5.61-10.61-11.79.33-6.19,5.61-10.93,11.79-10.61,5.95.32,10.62,5.24,10.62,11.2-.17,6.35-5.46,11.36-11.81,11.2h0Z"/>
      <path class="cls-2" d="m192.65,68.61v-5.67h-13.34v43.53h13.37v-20.32c0-6.86,7.43-10.54,12.59-10.54.05,0,.1,0,.15,0v-12.67c-4.89-.13-9.59,1.95-12.77,5.67Z"/>
      <path class="cls-2" d="m323.82,91.03c-4.52,0-8.18,3.66-8.18,8.18,0,4.52,3.66,8.18,8.18,8.18,4.52,0,8.18-3.66,8.18-8.18,0-4.52-3.66-8.18-8.18-8.18h0Z"/>
      <path class="cls-2" d="m95.18,43.53h-14.14c.04,11.5-5.38,22.33-14.62,29.18l-5.6,4.19,21.7,29.59h17.84l-19.96-27.23c9.51-9.45,14.83-22.32,14.78-35.73Z"/>
      <rect class="cls-2" x="44.95" y="43.53" width="14.16" height="62.96"/>
    </g>
  </g>
  <g>
    <rect class="cls-5" x="534.17" width="211.67" height="150"/>
    <g>
      <rect class="cls-6" x="618.06" y="35.69" width="43.75" height="78.61"/>
      <path class="cls-3" d="m620.83,75c0-15.28,7.08-29.86,19.03-39.31-21.67-17.08-53.19-13.33-70.28,8.47-16.94,21.67-13.19,53.06,8.61,70.14,18.19,14.31,43.61,14.31,61.81,0-12.08-9.44-19.17-24.03-19.17-39.31Z"/>
      <path class="cls-4" d="m720.83,75c0,27.64-22.36,50-50,50-11.25,0-22.08-3.75-30.83-10.69,21.67-17.08,25.42-48.47,8.33-70.28-2.5-3.06-5.28-5.97-8.33-8.33,21.67-17.08,53.19-13.33,70.14,8.47,6.94,8.75,10.69,19.58,10.69,30.83Z"/>
    </g>
  </g>
  <g id="g4158">
    <polygon id="polygon9" class="cls-8" points="1017.36 157.54 979.82 157.54 1003.3 12.34 1040.84 12.34 1017.36 157.54"/>
    <path id="path11" class="cls-8" d="m1153.46,15.89c-7.41-2.94-19.15-6.18-33.68-6.18-37.08,0-63.19,19.77-63.35,48.04-.31,20.86,18.69,32.44,32.91,39.39,14.53,7.11,19.46,11.74,19.46,18.08-.15,9.73-11.74,14.21-22.55,14.21-14.99,0-23.02-2.31-35.23-7.72l-4.94-2.32-5.25,32.6c8.81,4.01,25.03,7.57,41.87,7.73,39.4,0,65.04-19.47,65.35-49.59.15-16.53-9.88-29.2-31.52-39.54-13.13-6.64-21.17-11.12-21.17-17.92.15-6.18,6.8-12.51,21.63-12.51,12.21-.31,21.17,2.62,27.97,5.56l3.4,1.54,5.11-31.36h0Z"/>
    <path id="path13" class="cls-8" d="m1203.37,106.1c3.09-8.34,14.99-40.63,14.99-40.63-.16.31,3.09-8.5,4.94-13.9l2.62,12.51s7.11,34.76,8.65,42.02h-31.21Zm46.34-93.76h-29.04c-8.96,0-15.76,2.62-19.62,12.05l-55.77,133.15h39.4s6.49-17.92,7.88-21.78h48.2c1.08,5.1,4.48,21.78,4.48,21.78h34.76l-30.29-145.2h0Z"/>
    <path id="path15" class="cls-8" d="m948.46,12.34l-36.77,99.02-4.02-20.08c-6.8-23.17-28.12-48.35-51.91-60.86l33.68,126.98h39.7l59.01-145.05h-39.7Z"/>
    <path id="path17" class="cls-7" d="m877.54,12.34h-60.41l-.62,2.93c47.12,12.05,78.33,41.09,91.15,76.01l-13.13-66.73c-2.16-9.27-8.81-11.9-16.99-12.21h0Z"/>
  </g>
</svg>