<?xml version="1.0" encoding="utf-8"?>
<!-- Generator: Adobe Illustrator 27.9.0, SVG Export Plug-In . SVG Version: 6.00 Build 0)  -->
<svg version="1.1" id="Layer_1" xmlns="http://www.w3.org/2000/svg" xmlns:xlink="http://www.w3.org/1999/xlink" x="0px" y="0px"
	 viewBox="0 0 1000 1000" style="enable-background:new 0 0 1000 1000;" xml:space="preserve">
<style type="text/css">
	.st0{fill:#FFFFFF;}
</style>
<g>
	<path class="st0" d="M972.7,993H26.44c0-130.66,52.95-248.94,138.57-334.56c53.58-53.58,119.95-94.36,194.13-117.37
		c39.55,28.35,88.04,45.04,140.42,45.04s100.87-16.69,140.42-45.04c74.19,23.01,140.56,63.8,194.13,117.37
		C919.75,744.06,972.7,862.34,972.7,993z"/>
</g>
<path class="st0" d="M740.86,248.3c0,80.89-39.8,152.46-100.87,196.25c-39.55,28.35-88.04,45.04-140.42,45.04
	S398.7,472.9,359.14,444.55c-61.07-43.79-100.87-115.37-100.87-196.25C258.27,115.02,366.3,7,499.57,7S740.86,115.02,740.86,248.3z"
	/>
</svg>
