<?xml version="1.0" encoding="utf-8"?>
<!-- Generator: Adobe Illustrator 27.9.0, SVG Export Plug-In . SVG Version: 6.00 Build 0)  -->
<svg version="1.1" id="Layer_1" xmlns="http://www.w3.org/2000/svg" xmlns:xlink="http://www.w3.org/1999/xlink" x="0px" y="0px"
	 viewBox="0 0 1000 1000" style="enable-background:new 0 0 1000 1000;" xml:space="preserve">
<style type="text/css">
	.st0{fill:#FFFFFF;}
</style>
<g>
	<g>
		<path class="st0" d="M389.46,103c38.04,0,74.89,7.43,109.52,22.08c33.5,14.17,63.61,34.48,89.5,60.36
			c25.88,25.88,46.19,55.99,60.36,89.5c14.65,34.63,22.08,71.48,22.08,109.52s-7.43,74.89-22.08,109.52
			c-14.17,33.5-34.48,63.61-60.36,89.5c-25.88,25.88-55.99,46.19-89.5,60.36c-34.63,14.65-71.48,22.08-109.52,22.08
			s-74.89-7.43-109.52-22.08c-33.5-14.17-63.61-34.48-89.5-60.36c-25.88-25.88-46.19-55.99-60.36-89.5
			C115.43,459.35,108,422.5,108,384.46s7.43-74.89,22.08-109.52c14.17-33.5,34.48-63.61,60.36-89.5
			c25.88-25.88,55.99-46.19,89.5-60.36C314.57,110.43,351.42,103,389.46,103 M389.46,3C178.78,3,8,173.78,8,384.46
			s170.78,381.46,381.46,381.46s381.46-170.78,381.46-381.46S600.13,3,389.46,3L389.46,3z"/>
	</g>
	<g>
		<path class="st0" d="M925.02,989.46L596,660.45l59.41-59.41l329.01,329.01c7.81,7.81,7.81,20.47,0,28.28l-31.13,31.13
			C945.49,997.27,932.83,997.27,925.02,989.46z"/>
	</g>
</g>
</svg>
